<svg width="118" height="7" viewBox="0 0 118 7" fill="none" xmlns="http://www.w3.org/2000/svg">
<path opacity="0.5" d="M1.536 3.336H0.504V1.904C0.504 1.87733 0.496 1.856 0.48 1.84C0.464 1.824 0.442667 1.816 0.416 1.816H0.152V0.864H1.104C1.22667 0.864 1.328 0.906666 1.408 0.992C1.49333 1.072 1.536 1.17333 1.536 1.296V3.336ZM1.448 7L0.552 6.48L4.024 0.6L5.512 1.456C5.77333 1.56267 6.00533 1.776 6.208 2.096C6.416 2.41067 6.52 2.77867 6.52 3.2C6.52 3.75467 6.32267 4.22933 5.928 4.624C5.53333 5.01867 5.05867 5.216 4.504 5.216C4.36533 5.216 4.21867 5.19733 4.064 5.16C3.90933 5.12267 3.71733 5.05067 3.488 4.944L2.904 4.608L1.448 7ZM4.504 4.184C4.70667 4.184 4.88533 4.13333 5.04 4.032C5.2 3.93067 5.304 3.82133 5.352 3.704C5.40533 3.58667 5.44 3.49067 5.456 3.416C5.47733 3.34133 5.488 3.26933 5.488 3.2C5.488 2.99733 5.43733 2.81867 5.336 2.664C5.23467 2.504 5.12 2.39733 4.992 2.344L4.408 2.008L3.424 3.712L4.008 4.048C4.21067 4.13867 4.376 4.184 4.504 4.184ZM10.0744 4.016H9.00237V1.688C9.00237 1.66133 8.99171 1.64 8.97037 1.624C8.95437 1.60267 8.93304 1.592 8.90637 1.592H8.62637V0.6H9.61837C9.74637 0.6 9.85304 0.645333 9.93837 0.736C10.029 0.821333 10.0744 0.925333 10.0744 1.048V4.016ZM14.4104 1.592H10.5864V0.6H14.4104V1.592ZM10.7064 7H8.62637V5.92H10.7304C10.9437 5.92 11.1304 5.86933 11.2904 5.768C11.4557 5.66667 11.5624 5.55467 11.6104 5.432L11.9304 4.872L12.8664 5.408L12.5624 5.92C12.445 6.208 12.2184 6.46133 11.8824 6.68C11.5464 6.89333 11.1544 7 10.7064 7ZM14.4104 7H13.3304V5.368C13.3304 5.08533 13.229 4.84533 13.0264 4.648C12.829 4.44533 12.589 4.344 12.3064 4.344H11.4984V3.264H12.3064C12.5944 3.264 12.9357 3.35467 13.3304 3.536C13.6184 3.65333 13.869 3.88 14.0824 4.216C14.301 4.54667 14.4104 4.93333 14.4104 5.376V7ZM18.2939 7H17.2139V1.688C17.2139 1.66133 17.2032 1.64 17.1819 1.624C17.1659 1.60267 17.1445 1.592 17.1179 1.592H16.8459V0.6H17.8379C17.9659 0.6 18.0725 0.645333 18.1579 0.736C18.2485 0.821333 18.2939 0.925333 18.2939 1.048V7ZM23.2459 1.592H18.8059V0.6H23.2459V1.592ZM23.2059 7H22.1339V5.744C22.1339 5.472 22.0379 5.24 21.8459 5.048C21.6539 4.856 21.4219 4.76 21.1499 4.76C20.8779 4.76 20.6139 4.896 20.3579 5.168L19.2139 7L18.2939 6.464L19.3819 4.584C19.5845 4.28 19.8325 4.056 20.1259 3.912C20.4192 3.768 20.7285 3.696 21.0539 3.696C21.4059 3.696 21.7472 3.776 22.0779 3.936C22.4085 4.096 22.6779 4.32533 22.8859 4.624C23.0992 4.91733 23.2059 5.26933 23.2059 5.68V7ZM31.1328 3.6H30.0208V2.776C30.0208 2.47733 29.9168 2.22667 29.7088 2.024C29.5061 1.816 29.2581 1.712 28.9648 1.712H28.7008V0.6H28.8208C29.2955 0.6 29.6955 0.693333 30.0208 0.88C30.3141 1.00267 30.5728 1.23733 30.7968 1.584C31.0208 1.92533 31.1328 2.32267 31.1328 2.776V3.6ZM30.3488 7H29.1648L27.6528 2.832C27.4128 2.93333 27.2288 3.07467 27.1008 3.256C26.9728 3.432 26.9088 3.62933 26.9088 3.848V7H25.7968V3.848C25.7968 3.4 25.9248 2.99467 26.1808 2.632C26.4368 2.26933 26.7995 1.98933 27.2688 1.792L26.9728 0.984L28.0208 0.6L30.3488 7ZM36.4979 7H35.3139C34.8819 7 34.5086 6.89867 34.1939 6.696C33.8793 6.488 33.6366 6.22133 33.4659 5.896C33.3006 5.57067 33.2179 5.22933 33.2179 4.872C33.2179 4.55733 33.2899 4.25067 33.4339 3.952C33.5779 3.65333 33.8046 3.39467 34.1139 3.176L35.8099 2.2L36.3379 3.12L34.7539 4.04C34.4766 4.22133 34.3219 4.48 34.2899 4.816V4.896C34.2899 5.17333 34.3886 5.41333 34.5859 5.616C34.7833 5.81867 35.0206 5.92 35.2979 5.92H36.4979V7ZM38.4499 1.672H33.2099V0.6H38.4499V1.672ZM38.0819 6.992H37.0099V2.64C37.0099 2.51733 37.0526 2.41333 37.1379 2.328C37.2286 2.24267 37.3379 2.2 37.4659 2.2H38.4499V3.272H38.1779C38.1566 3.272 38.1353 3.28267 38.1139 3.304C38.0926 3.32 38.0819 3.34133 38.0819 3.368V6.992ZM45.9974 7H44.9174V5.128C44.9174 4.728 44.7227 4.41867 44.3334 4.2L43.6294 6.152C43.3947 6.67467 42.992 6.95467 42.4214 6.992H42.4054C42.048 6.992 41.744 6.86933 41.4934 6.624C41.2427 6.37867 41.1094 6.072 41.0934 5.704V0.608H42.1734V5.072C42.1734 5.216 42.2427 5.328 42.3814 5.408C42.4134 5.41867 42.448 5.424 42.4854 5.424C42.5547 5.424 42.6187 5.40267 42.6774 5.36C42.7947 5.28 43.4027 3.69333 44.5014 0.6H45.6454L44.7094 3.184C44.784 3.216 44.8534 3.25333 44.9174 3.296C45.6054 3.712 45.9654 4.32267 45.9974 5.128V7ZM49.5387 3.504H48.4587V2.704C48.4587 2.12267 48.664 1.62667 49.0747 1.216C49.4854 0.805333 49.9814 0.6 50.5627 0.6H53.7067V1.672H50.5627C50.28 1.672 50.0374 1.77333 49.8347 1.976C49.6374 2.17867 49.5387 2.42133 49.5387 2.704V3.504ZM49.5387 7H48.4587V6.192C48.4587 5.61067 48.664 5.11733 49.0747 4.712C49.4854 4.30133 49.9814 4.096 50.5627 4.096H53.7067V5.168H50.5627C50.28 5.168 50.0374 5.26933 49.8347 5.472C49.6374 5.67467 49.5387 5.91733 49.5387 6.2V7ZM62.6452 7H62.0692C61.7759 7 61.4932 6.936 61.2212 6.808C60.9492 6.67467 60.6665 6.45333 60.3732 6.144L60.0692 7H58.9252L61.2532 0.6L62.2612 0.968L61.2372 3.776C61.1092 4.06933 61.0452 4.44533 61.0452 4.904C61.0452 5.18133 61.1439 5.42133 61.3412 5.624C61.5439 5.82667 61.7839 5.928 62.0612 5.928H62.6452V7ZM57.3252 7H56.2452V1.928C56.2452 1.56533 56.3732 1.256 56.6292 1C56.8905 0.744 57.1999 0.616 57.5572 0.616C58.1012 0.616 58.5092 0.896 58.7812 1.456L59.2692 2.816L58.2532 3.192L57.9652 2.416C57.8959 2.272 57.7919 2.2 57.6532 2.2C57.5625 2.2 57.4852 2.232 57.4212 2.296C57.3572 2.36 57.3252 2.43733 57.3252 2.528V7ZM70.2151 7H69.1431V5.368C69.1431 5.08533 69.0418 4.84267 68.8391 4.64C68.6418 4.43733 68.4018 4.336 68.1191 4.336H66.4391C66.3325 4.336 66.2391 4.376 66.1591 4.456C66.0845 4.53067 66.0471 4.624 66.0471 4.736V7H64.9671V0.6H66.0471V3.264H68.1191C68.4071 3.264 68.7485 3.352 69.1431 3.528C69.4258 3.64533 69.6738 3.872 69.8871 4.208C70.1058 4.544 70.2151 4.928 70.2151 5.36V7ZM70.2151 2.704H69.1431C69.1431 2.42133 69.0418 2.17867 68.8391 1.976C68.6418 1.77333 68.4018 1.672 68.1191 1.672H67.3831V0.6H68.1191C68.4071 0.6 68.7485 0.688 69.1431 0.864C69.4258 0.981333 69.6738 1.208 69.8871 1.544C70.1058 1.88 70.2151 2.26667 70.2151 2.704ZM81.6094 3.336H80.5774V1.904C80.5774 1.87733 80.5694 1.856 80.5534 1.84C80.5374 1.824 80.5161 1.816 80.4894 1.816H80.2254V0.864H81.1774C81.3001 0.864 81.4014 0.906666 81.4814 0.992C81.5668 1.072 81.6094 1.17333 81.6094 1.296V3.336ZM81.5214 7L80.6254 6.48L84.0974 0.6L85.5854 1.456C85.8468 1.56267 86.0788 1.776 86.2814 2.096C86.4894 2.41067 86.5934 2.77867 86.5934 3.2C86.5934 3.75467 86.3961 4.22933 86.0014 4.624C85.6068 5.01867 85.1321 5.216 84.5774 5.216C84.4388 5.216 84.2921 5.19733 84.1374 5.16C83.9828 5.12267 83.7908 5.05067 83.5614 4.944L82.9774 4.608L81.5214 7ZM84.5774 4.184C84.7801 4.184 84.9588 4.13333 85.1134 4.032C85.2734 3.93067 85.3774 3.82133 85.4254 3.704C85.4788 3.58667 85.5134 3.49067 85.5294 3.416C85.5508 3.34133 85.5614 3.26933 85.5614 3.2C85.5614 2.99733 85.5108 2.81867 85.4094 2.664C85.3081 2.504 85.1934 2.39733 85.0654 2.344L84.4814 2.008L83.4974 3.712L84.0814 4.048C84.2841 4.13867 84.4494 4.184 84.5774 4.184ZM89.7876 2.048H88.7156V1.048C88.7156 0.925333 88.7583 0.821333 88.8436 0.736C88.9343 0.645333 89.041 0.6 89.1636 0.6H93.8676V1.672H89.8836C89.857 1.672 89.833 1.68267 89.8116 1.704C89.7956 1.72533 89.7876 1.74933 89.7876 1.776V2.048ZM93.8916 7H90.7956C90.2143 7 89.7183 6.79733 89.3076 6.392C88.897 5.98133 88.6916 5.48533 88.6916 4.904C88.6916 4.31733 88.897 3.82133 89.3076 3.416C89.7236 3.00533 90.233 2.8 90.8356 2.8H93.8916V3.872H90.8356C90.537 3.872 90.2863 3.97333 90.0836 4.176C89.881 4.37867 89.7796 4.62133 89.7796 4.904C89.7796 5.18133 89.881 5.42133 90.0836 5.624C90.2863 5.82667 90.537 5.928 90.8356 5.928H93.8916V7ZM97.4909 7L96.5629 6.464L99.0989 2.064C99.1256 2.00533 99.1389 1.952 99.1389 1.904C99.1389 1.81333 99.1096 1.73867 99.0509 1.68C98.9923 1.62133 98.9176 1.592 98.8269 1.592H96.2269V0.6H101.483V1.592H100.619L99.2509 3.952C99.1336 4.208 99.0749 4.42933 99.0749 4.616C99.0749 4.70667 99.0856 4.80267 99.1069 4.904C99.1336 5.00533 99.1789 5.13067 99.2429 5.28C99.3069 5.424 99.4216 5.552 99.5869 5.664C99.7523 5.77067 99.9416 5.824 100.155 5.824H101.483V6.896H100.147C99.7149 6.896 99.3309 6.78933 98.9949 6.576C98.6589 6.35733 98.4323 6.10667 98.3149 5.824L98.2429 5.696L97.4909 7ZM107.187 7H106.003C105.571 7 105.197 6.89867 104.883 6.696C104.568 6.488 104.325 6.22133 104.155 5.896C103.989 5.57067 103.907 5.22933 103.907 4.872C103.907 4.55733 103.979 4.25067 104.123 3.952C104.267 3.65333 104.493 3.39467 104.803 3.176L106.499 2.2L107.027 3.12L105.443 4.04C105.165 4.22133 105.011 4.48 104.979 4.816V4.896C104.979 5.17333 105.077 5.41333 105.275 5.616C105.472 5.81867 105.709 5.92 105.987 5.92H107.187V7ZM109.139 1.672H103.899V0.6H109.139V1.672ZM108.771 6.992H107.699V2.64C107.699 2.51733 107.741 2.41333 107.827 2.328C107.917 2.24267 108.027 2.2 108.155 2.2H109.139V3.272H108.867C108.845 3.272 108.824 3.28267 108.803 3.304C108.781 3.32 108.771 3.34133 108.771 3.368V6.992ZM114.86 4.8H114.844V3.728H114.916C115.15 3.728 115.345 3.67733 115.5 3.576C115.66 3.47467 115.777 3.34667 115.852 3.192C115.932 3.032 115.972 2.86667 115.972 2.696C115.972 2.45067 115.886 2.22667 115.716 2.024C115.55 1.82133 115.297 1.70667 114.956 1.68H111.7V0.6H114.948C115.529 0.6 116.025 0.805333 116.436 1.216C116.846 1.62667 117.052 2.12267 117.052 2.704C117.052 3.28 116.844 3.77333 116.428 4.184C116.012 4.59467 115.489 4.8 114.86 4.8ZM114.324 7H113.252V3.728H114.324V7Z" fill="#5B544A"/>
</svg>
