<svg width="304" height="32" viewBox="0 0 304 32" fill="none" xmlns="http://www.w3.org/2000/svg" xmlns:xlink="http://www.w3.org/1999/xlink">
<mask id="mask0_882_60836" style="mask-type:alpha" maskUnits="userSpaceOnUse" x="0" y="0" width="304" height="32">
<path d="M0 0H304V20C304 26.6274 298.627 32 292 32H0V0Z" fill="#2A271C"/>
</mask>
<g mask="url(#mask0_882_60836)">
<path d="M0 0H304V20C304 26.6274 298.627 32 292 32H0V0Z" fill="#2A271C"/>
<rect width="3" height="32" fill="#181818"/>
<rect opacity="0.2" x="-29" y="-40" width="930" height="522" fill="url(#pattern0)"/>
<path opacity="0.1" fill-rule="evenodd" clip-rule="evenodd" d="M289.468 -20.1008C293.422 -4.31095 292.943 7.00222 289.867 16.219C287.104 24.4962 282.238 31.1049 276.551 37.7657C276.436 37.8396 276.322 37.913 276.208 37.9861L276.274 38.0888C275.715 38.7417 275.147 39.3954 274.573 40.0515L274.949 40.3808C275.602 39.6343 276.248 38.8903 276.883 38.1465C277.321 37.8654 277.772 37.5778 278.234 37.2829L278.237 37.2812C279.054 36.7597 279.907 36.2157 280.787 35.6457C280.677 35.7728 280.568 35.9001 280.459 36.0275L280.839 36.3525C281.327 35.7818 281.819 35.2138 282.314 34.6466C294.815 26.3776 311.587 12.8124 311.553 -15.1524L311.053 -15.1518C311.085 11.4179 295.832 24.8585 283.591 33.1875C283.678 33.0883 283.765 32.9892 283.852 32.89C288.719 27.3441 293.641 21.7351 297.046 14.5718C301.166 5.90381 303.064 -5.02763 300.045 -20.8868L299.554 -20.7933C302.556 -5.02232 300.662 5.7989 296.594 14.3572C293.222 21.4518 288.354 26.9999 283.489 32.5445L283.489 32.545L283.489 32.5453C282.986 33.1182 282.483 33.691 281.982 34.2655C280.586 35.1889 279.241 36.0471 277.978 36.8531C283.23 30.5847 287.72 24.2288 290.341 16.3773C293.455 7.04753 293.923 -4.36633 289.953 -20.2222L289.468 -20.1008ZM278.398 -15.5739C285.206 -0.730269 285.344 10.8623 283.007 19.6511C280.669 28.4457 275.847 34.4592 272.684 38.1352L273.064 38.4612C276.24 34.769 281.123 28.6855 283.491 19.7796C285.86 10.8678 285.704 -0.84368 278.852 -15.7823L278.398 -15.5739Z" fill="white"/>
</g>
<defs>
<pattern id="pattern0" patternContentUnits="objectBoundingBox" width="1" height="1">
<use xlink:href="#image0_882_60836" transform="matrix(0.000244141 0 0 0.000434963 0 -0.00107759)"/>
</pattern>
</defs>
</svg>
